<svg width="190" height="39" viewBox="0 0 190 39" fill="none" xmlns="http://www.w3.org/2000/svg">
<g clip-path="url(#clip0_1604_2)">
<path fill-rule="evenodd" clip-rule="evenodd" d="M64.0787 9.37772H110.558V37.5711H64.0787V9.37772ZM85.9575 12.958H105.527L90.4996 32.3458H106.657V34.3576H67.977L82.9543 14.9589H67.9798V12.9772H85.9575V12.958ZM100.935 14.937H86.0156L72.5274 32.3458H87.5047L100.935 14.937ZM168.119 21.7144C168.067 22.0845 168.042 22.4577 168.044 22.8312C168.048 24.8143 168.645 26.7517 169.761 28.3983C170.876 30.045 172.459 31.3268 174.31 32.0816C176.161 32.8365 178.197 33.0304 180.159 32.6389C182.121 32.2474 183.922 31.2881 185.334 29.8823C185.671 29.5483 185.991 29.2007 186.298 28.8339L188.442 29.5839C187.98 30.2401 187.446 30.8441 186.851 31.385C185.719 32.537 184.367 33.4547 182.875 34.085C181.382 34.7153 179.778 35.0457 178.155 35.0568C176.533 35.068 174.924 34.7597 173.423 34.15C171.921 33.5403 170.557 32.6412 169.41 31.5049C168.262 30.3687 167.353 29.0179 166.736 27.5309C166.12 26.044 165.807 24.4505 165.817 22.843C165.827 21.2354 166.16 19.6459 166.795 18.1665C167.43 16.6872 168.355 15.3476 169.517 14.2254C171.816 11.9484 174.933 10.6693 178.184 10.6693C181.434 10.6693 184.552 11.9484 186.851 14.2254C187.861 15.1965 188.66 16.3615 189.199 17.6492C189.739 18.9369 190.008 20.3202 189.989 21.7144H168.119ZM168.503 19.6861H187.74C187.276 18.1968 186.45 16.8433 185.334 15.7445C184.393 14.8109 183.276 14.0703 182.046 13.565C180.817 13.0596 179.498 12.7995 178.167 12.7995C176.836 12.7995 175.517 13.0596 174.288 13.565C173.058 14.0703 171.941 14.8109 171 15.7445C169.875 16.8522 169.021 18.2005 168.503 19.6861V19.6861ZM146.953 17.4963V34.3576H144.936V12.635H146.953V14.0392C148.767 12.2381 150.885 11.3376 153.307 11.3376C155.897 11.3376 158.006 12.1405 159.634 13.7463C161.262 15.3522 162.091 17.375 162.121 19.8148V34.3576H160.129V20.0146C160.143 19.1312 159.971 18.2547 159.622 17.4414C159.274 16.6282 158.757 15.8963 158.106 15.2929C156.835 14.0437 155.118 13.3405 153.328 13.3354C151.537 13.3302 149.817 14.0236 148.538 15.2655C147.873 15.9013 147.332 16.6529 146.942 17.4826L146.953 17.4963ZM128.378 12.7856C126.03 12.7748 123.751 13.5714 121.929 15.0395C120.107 16.5076 118.856 18.5563 118.389 20.8362C117.922 23.1161 118.267 25.486 119.366 27.5418C120.466 29.5976 122.251 31.2119 124.417 32.1095C126.583 33.007 128.997 33.1323 131.246 32.4638C133.495 31.7953 135.441 30.3745 136.751 28.4437C138.061 26.5128 138.654 24.1916 138.43 21.8758C138.205 19.56 137.177 17.3931 135.52 15.7445C134.597 14.7943 133.486 14.0416 132.258 13.5327C131.03 13.0238 129.709 12.7695 128.378 12.7856V12.7856ZM128.378 10.6752C130.8 10.6773 133.167 11.3902 135.181 12.724C137.195 14.0578 138.764 15.9527 139.692 18.1695C140.619 20.3863 140.863 22.8256 140.393 25.1796C139.922 27.5336 138.758 29.6967 137.048 31.396C135.623 32.8066 133.87 33.8476 131.942 34.4266C130.015 35.0057 127.973 35.105 125.998 34.7157C124.022 34.3265 122.174 33.4607 120.617 32.1951C119.06 30.9294 117.842 29.3029 117.071 27.4596C116.3 25.6163 115.999 23.613 116.196 21.6272C116.392 19.6413 117.08 17.7341 118.198 16.0744C119.316 14.4147 120.83 13.0537 122.606 12.1119C124.381 11.1702 126.364 10.6767 128.378 10.6752ZM45.2168 12.7856C42.8658 12.7708 40.5825 13.5648 38.7566 15.032C36.9306 16.4992 35.6752 18.5488 35.2046 20.8309C34.7339 23.1129 35.0772 25.4861 36.1758 27.5454C37.2744 29.6047 39.0603 31.2224 41.2287 32.1225C43.3971 33.0226 45.8136 33.1493 48.0657 32.481C50.3179 31.8127 52.2662 30.3907 53.5781 28.4579C54.89 26.525 55.4842 24.201 55.2593 21.8824C55.0344 19.5639 54.0043 17.3945 52.3449 15.7445C51.4203 14.7928 50.3084 14.0392 49.0781 13.5303C47.8477 13.0213 46.5251 12.7679 45.1919 12.7856H45.2168ZM45.2168 10.6752C47.6384 10.6786 50.0047 11.3923 52.0174 12.7263C54.0301 14.0603 55.599 15.9549 56.5263 18.1712C57.4536 20.3874 57.6978 22.8261 57.228 25.1796C56.7582 27.5332 55.5955 29.6962 53.8866 31.396C52.4621 32.8066 50.7085 33.8476 48.7811 34.4266C46.8537 35.0057 44.8119 35.105 42.8365 34.7157C40.8611 34.3265 39.0131 33.4607 37.456 32.1951C35.8989 30.9294 34.6808 29.3029 33.9095 27.4596C33.1382 25.6163 32.8376 23.613 33.0342 21.6272C33.2309 19.6413 33.9187 17.7341 35.0368 16.0744C36.1549 14.4147 37.6688 13.0537 39.4444 12.1119C41.2201 11.1702 43.2027 10.6767 45.2168 10.6752ZM28.3635 5.1706V34.3385H26.3411V5.1706H28.3635ZM20.1275 29.1131L22.2438 29.8823C21.8492 30.4175 21.4112 30.9201 20.9343 31.385C19.7989 32.5161 18.4491 33.4137 16.9624 34.0262C15.4757 34.6387 13.8815 34.954 12.2714 34.954C10.6613 34.954 9.06707 34.6387 7.58038 34.0262C6.0937 33.4137 4.74388 32.5161 3.60853 31.385C1.89568 29.6888 0.72872 27.5276 0.255103 25.1746C-0.218515 22.8216 0.0224603 20.3822 0.947581 18.1648C1.8727 15.9474 3.44046 14.0514 5.45276 12.7164C7.46507 11.3814 9.83163 10.6673 12.2534 10.6642C13.8693 10.636 15.4738 10.9373 16.9672 11.5495C18.4605 12.1616 19.8109 13.0715 20.9343 14.2226C21.4112 14.6845 21.8492 15.1844 22.2438 15.7171L20.1275 16.4945C19.9148 16.2208 19.6772 15.9662 19.4202 15.6925C18.488 14.7499 17.3718 14.0053 16.1397 13.5042C14.9075 13.003 13.5852 12.7557 12.2534 12.7774C10.5876 12.7759 8.94715 13.1819 7.47767 13.9592C6.00819 14.7366 4.75512 15.8613 3.82966 17.2336C2.9042 18.6059 2.33497 20.1833 2.17248 21.8258C2.00999 23.4683 2.25927 25.1252 2.89819 26.6494C3.53712 28.1736 4.54593 29.5179 5.8351 30.5632C7.12428 31.6084 8.65395 32.3222 10.2884 32.6412C11.9228 32.9602 13.6115 32.8745 15.2044 32.3918C16.7974 31.9091 18.2455 31.0443 19.4202 29.8741C19.667 29.6323 19.9012 29.3784 20.122 29.1131H20.1275ZM77.4812 7.92973H97.1581C96.6191 6.82416 95.9035 5.81205 95.039 4.93247C94.0551 3.88202 92.8603 3.04712 91.5314 2.48144C90.2024 1.91575 88.7687 1.63179 87.3224 1.6478C84.3219 1.6478 81.747 2.76732 79.6058 4.93247C78.734 5.80856 78.0143 6.82128 77.4756 7.92973H77.4812ZM62.4431 7.92973H75.8041C76.4225 6.27829 77.4018 4.78274 78.6719 3.55017C80.9699 1.27676 84.0846 -0.000152588 87.332 -0.000152588C90.5795 -0.000152588 93.6942 1.27676 95.9921 3.55017C97.259 4.7832 98.2346 6.27885 98.8489 7.92973H112.204V39.0109H62.4292V7.92973H62.4431Z" fill="#003466"/>
</g>
<defs>
<clipPath id="clip0_1604_2">
<rect width="190" height="39" fill="white"/>
</clipPath>
</defs>
</svg>
